<?xml version="1.0" encoding="UTF-8"?>
<svg version="1.1" xmlns="http://www.w3.org/2000/svg" width="1200" height="892">
<path d="M0 0 C1.27108864 -0.00262848 1.27108864 -0.00262848 2.56785583 -0.00531006 C5.37126711 -0.00971467 8.17461542 -0.00679598 10.97802734 -0.00341797 C12.92190564 -0.00409128 14.86578386 -0.00506154 16.80966187 -0.00631714 C20.88336997 -0.00779212 24.95705616 -0.00564547 29.03076172 -0.00097656 C34.26455741 0.00472818 39.4983019 0.00143575 44.73209572 -0.00454903 C48.74509063 -0.00815355 52.7580733 -0.00701669 56.77106857 -0.00442123 C58.7016742 -0.00375206 60.63228093 -0.00458007 62.56288528 -0.00690079 C65.25419332 -0.00942635 67.94541704 -0.00558844 70.63671875 0 C71.84452751 -0.00303635 71.84452751 -0.00303635 73.07673645 -0.00613403 C78.57470074 0.01513043 78.57470074 0.01513043 79.68896484 1.12939453 C79.67142162 2.57671066 79.57767849 4.0231528 79.45458984 5.46533203 C79.37668213 6.40940918 79.29877441 7.35348633 79.21850586 8.32617188 C79.12625732 9.37498535 79.03400879 10.42379883 78.93896484 11.50439453 C78.84607178 12.60348145 78.75317871 13.70256836 78.6574707 14.83496094 C78.45062408 17.27444048 78.24142317 19.71372118 78.03027344 22.15283203 C77.73565976 25.58535539 77.44942497 29.01835478 77.16830444 32.45199585 C76.92591491 35.40777276 76.67985624 38.36323866 76.43322754 41.31866455 C76.31572758 42.7316233 76.19920496 44.14466381 76.0838623 45.55780029 C75.30561763 55.05439558 74.3242648 64.51743462 73.24755859 73.98486328 C71.65933606 87.99317164 70.39740503 102.02146169 69.18896484 116.06689453 C67.99826592 129.88496517 66.76957323 143.69061693 65.25146484 157.47705078 C64.03515275 168.54913466 62.9689619 179.62977859 61.97021484 190.72314453 C61.89739792 191.53138231 61.82458099 192.33962009 61.7495575 193.17234993 C61.22612209 198.99107661 60.70707149 204.81019129 60.18896484 210.62939453 C59.59816376 217.26507774 59.00539899 223.90057741 58.40771484 230.53564453 C58.33570169 231.33597422 58.26368855 232.1363039 58.18949318 232.960886 C57.12441172 244.75969632 55.95214134 256.54148048 54.63793945 268.31542969 C53.12547953 281.90744526 52.36857622 295.44600082 52.68896484 309.12939453 C52.70685059 309.94005371 52.72473633 310.75071289 52.74316406 311.5859375 C53.09112838 325.28354024 54.36951099 338.62795513 56.68896484 352.12939453 C56.85380371 353.11842773 57.01864258 354.10746094 57.18847656 355.12646484 C59.79785966 370.47378929 63.73120112 384.7451648 69.68896484 399.12939453 C69.99672852 399.88655762 70.30449219 400.6437207 70.62158203 401.42382812 C75.46007335 413.13297712 82.17625946 423.21240462 89.62255859 433.42797852 C90.68896484 435.12939453 90.68896484 435.12939453 90.68896484 437.12939453 C91.34896484 437.12939453 92.00896484 437.12939453 92.68896484 437.12939453 C94.16943359 438.63330078 94.16943359 438.63330078 95.87646484 440.69189453 C111.28407998 458.64648278 131.0256469 469.86151912 153.68896484 476.12939453 C154.78748779 476.4469873 154.78748779 476.4469873 155.90820312 476.77099609 C168.62203497 480.29656317 181.40137742 480.52032604 194.50146484 480.56689453 C195.33036224 480.57315857 196.15925964 480.57942261 197.01327515 480.58587646 C208.26894792 480.63961213 218.70462643 479.65589315 229.68896484 477.12939453 C230.58236572 476.92548096 231.4757666 476.72156738 232.39624023 476.51147461 C234.54999986 475.98920561 236.68096704 475.4177097 238.81396484 474.81689453 C239.48298828 474.64222656 240.15201172 474.46755859 240.84130859 474.28759766 C245.73004229 472.93163163 250.33809968 471.05109248 254.98535156 469.03100586 C255.63169052 468.75193642 256.27802948 468.47286697 256.94395447 468.18534088 C258.52638982 467.50179425 260.10778404 466.81583819 261.68896484 466.12939453 C260.70100418 466.13161514 259.71304352 466.13383575 258.69514465 466.13612366 C249.24169999 466.15667136 239.78826004 466.17151538 230.33479786 466.1812067 C225.47831583 466.18635704 220.62185227 466.19330582 215.76538086 466.20483398 C203.07287218 466.23391782 190.38119047 466.22757371 177.68896484 466.12939453 C176.92279594 466.12356102 176.15662704 466.11772751 175.36724091 466.11171722 C170.64388596 466.07093887 165.92301883 465.98626498 161.20068359 465.87548828 C160.08659622 465.86163589 158.97250885 465.84778351 157.82466125 465.83351135 C143.70105303 465.40029108 131.64899318 459.96566403 121.37646484 450.31689453 C117.33148392 446.01548332 114.36451216 441.3775835 111.68896484 436.12939453 C111.27388672 435.36755859 110.85880859 434.60572266 110.43115234 433.82080078 C105.64221036 423.35545553 105.62526391 407.72851491 109.31396484 396.87939453 C110.05286043 395.27075726 110.84388259 393.68487405 111.68896484 392.12939453 C112.10146484 391.29794922 112.51396484 390.46650391 112.93896484 389.60986328 C119.56538677 377.35474773 130.19349015 368.54234955 143.28495789 363.99371338 C152.22770724 361.33577753 161.08202559 361.5996686 170.34057617 361.67529297 C172.29320757 361.67642333 174.24584066 361.67578391 176.19847107 361.67352295 C181.46214786 361.67238224 186.72545494 361.69578688 191.98904634 361.72381878 C197.50363904 361.74894022 203.01824159 361.75118287 208.53288269 361.75592041 C218.95899166 361.76831874 229.38493148 361.80109762 239.81096619 361.84131837 C251.68768041 361.88613418 263.564403 361.90804774 275.44118083 361.92810011 C299.85720235 361.96983317 324.27307409 362.04012379 348.68896484 362.12939453 C348.4453934 360.22163239 348.4453934 360.22163239 348.19690132 358.27532959 C347.83851003 355.46824628 347.56316675 352.72846455 347.55957031 349.89501953 C347.55484207 348.80217651 347.55484207 348.80217651 347.55001831 347.68725586 C347.55204254 346.92566162 347.55406677 346.16406738 347.55615234 345.37939453 C347.55519562 344.56301514 347.55423889 343.74663574 347.55325317 342.90551758 C347.55257644 341.18440676 347.55439514 339.46329333 347.55859375 337.7421875 C347.56389337 335.16416379 347.5586603 332.58631876 347.55224609 330.00830078 C347.54336658 314.6152035 348.29858249 299.64702879 350.93896484 284.44189453 C351.16221436 283.14171387 351.38546387 281.8415332 351.61547852 280.50195312 C357.92190493 244.31537604 369.97448715 210.06874329 389.68896484 178.94189453 C390.24958618 178.05002441 390.24958618 178.05002441 390.8215332 177.14013672 C391.71982079 175.76391274 392.69709278 174.43977723 393.68896484 173.12939453 C394.34896484 173.12939453 395.00896484 173.12939453 395.68896484 173.12939453 C395.94935547 172.39591797 396.20974609 171.66244141 396.47802734 170.90673828 C398.61987967 165.99429634 402.26986683 162.21165623 405.68896484 158.12939453 C406.60175135 157.01613467 407.51451062 155.90285248 408.42724609 154.78955078 C415.26690514 146.53475015 422.51894128 139.07043425 430.68896484 132.12939453 C431.33542969 131.57783691 431.98189453 131.0262793 432.64794922 130.45800781 C449.0375288 116.66383411 467.69089888 105.8217349 487.68896484 98.12939453 C488.37120117 97.86578125 489.0534375 97.60216797 489.75634766 97.33056641 C535.15489452 80.03786613 589.00473462 78.79776234 634.68896484 96.12939453 C637.75537109 97.81298828 637.75537109 97.81298828 639.68896484 99.12939453 C638.16909424 106.5348566 636.08624348 113.68200168 633.84521484 120.89892578 C633.47545532 122.09748703 633.1056958 123.29604828 632.72473145 124.53092957 C631.7483916 127.691504 630.76861191 130.85098719 629.78765869 134.01013184 C628.98801032 136.59030014 628.19360899 139.17207154 627.39917755 141.75384998 C626.44709067 144.84492809 625.48967587 147.93435381 624.53271484 151.02392578 C624.17745728 152.17810501 623.82219971 153.33228424 623.45617676 154.5214386 C623.12243042 155.59322861 622.78868408 156.66501862 622.44482422 157.76928711 C622.15329468 158.71032791 621.86176514 159.65136871 621.56140137 160.6209259 C620.76389414 162.91395446 619.83215588 164.99135846 618.68896484 167.12939453 C613.44881505 166.04522561 608.37221183 164.74779088 603.25146484 163.19189453 C574.78437982 155.09741988 544.48997039 155.7935691 516.68896484 166.12939453 C516.03331543 166.37141602 515.37766602 166.6134375 514.70214844 166.86279297 C496.11220803 173.91055276 478.51564413 186.18154907 466.99365234 202.54736328 C466.56310547 203.06943359 466.13255859 203.59150391 465.68896484 204.12939453 C465.02896484 204.12939453 464.36896484 204.12939453 463.68896484 204.12939453 C463.42599609 204.85771484 463.16302734 205.58603516 462.89208984 206.33642578 C461.67404983 209.16401868 460.25687187 211.33979149 458.43896484 213.81689453 C452.41208197 222.04165441 447.70232203 230.71068537 443.68896484 240.06689453 C443.04386963 241.56796753 443.04386963 241.56796753 442.38574219 243.09936523 C433.2798163 264.67927947 426.14192206 289.46979414 426.68896484 313.12939453 C427.30771484 312.57433228 427.30771484 312.57433228 427.93896484 312.00805664 C459.58696801 284.17918332 501.30169511 276.33477873 542.25830078 278.24951172 C559.60241385 279.43912542 576.89723092 283.93292837 592.68896484 291.12939453 C593.73310547 291.60248047 594.77724609 292.07556641 595.85302734 292.56298828 C606.35068267 297.56768442 615.67478508 304.08322337 624.63037109 311.46533203 C626.78921843 313.26244335 626.78921843 313.26244335 629.68896484 315.12939453 C629.68896484 315.78939453 629.68896484 316.44939453 629.68896484 317.12939453 C630.26388672 317.37173828 630.83880859 317.61408203 631.43115234 317.86376953 C649.43134135 327.95384088 661.90133988 357.34585349 667.29833984 376.265625 C676.78011158 411.89434328 673.41212955 448.75036142 655.68896484 481.12939453 C655.17205078 482.07814453 654.65513672 483.02689453 654.12255859 484.00439453 C650.56770145 490.20360045 646.24531397 495.64148414 641.68896484 501.12939453 C640.99029297 502.05107422 640.29162109 502.97275391 639.57177734 503.92236328 C638.63978516 505.01484375 638.63978516 505.01484375 637.68896484 506.12939453 C637.02896484 506.12939453 636.36896484 506.12939453 635.68896484 506.12939453 C635.02896484 507.44939453 634.36896484 508.76939453 633.68896484 510.12939453 C633.02896484 510.12939453 632.36896484 510.12939453 631.68896484 510.12939453 C631.68896484 510.78939453 631.68896484 511.44939453 631.68896484 512.12939453 C629.68657331 513.90963625 627.68276535 515.55954481 625.56396484 517.19189453 C624.93087402 517.68214111 624.2977832 518.1723877 623.64550781 518.67749023 C594.42569485 540.99928595 560.46302377 552.31887705 523.71435547 552.31469727 C521.58849609 552.31686947 519.46316954 552.33505022 517.33740234 552.35400391 C504.05818557 552.40989578 491.10805572 551.07040998 478.18896484 547.87939453 C477.30080078 547.66105957 476.41263672 547.44272461 475.49755859 547.21777344 C453.10501475 541.52700645 433.10883915 531.08003219 415.27441406 516.41064453 C413.96283031 515.35071359 412.59913536 514.35563287 411.22412109 513.37939453 C410.46421875 512.76064453 410.46421875 512.76064453 409.68896484 512.12939453 C409.68896484 511.46939453 409.68896484 510.80939453 409.68896484 510.12939453 C409.02896484 510.12939453 408.36896484 510.12939453 407.68896484 510.12939453 C407.68896484 509.46939453 407.68896484 508.80939453 407.68896484 508.12939453 C407.02896484 508.12939453 406.36896484 508.12939453 405.68896484 508.12939453 C405.68896484 507.46939453 405.68896484 506.80939453 405.68896484 506.12939453 C405.02896484 506.12939453 404.36896484 506.12939453 403.68896484 506.12939453 C403.68896484 505.46939453 403.68896484 504.80939453 403.68896484 504.12939453 C403.02896484 504.12939453 402.36896484 504.12939453 401.68896484 504.12939453 C396.31599321 498.45535121 391.72062416 491.94388473 387.12646484 485.62939453 C386.46420898 484.73099854 386.46420898 484.73099854 385.78857422 483.81445312 C382.68896484 479.4841165 382.68896484 479.4841165 382.68896484 476.12939453 C396.51005532 475.25584214 410.27586957 474.96651905 424.12255859 474.96142578 C426.21899944 474.9582012 428.31544008 474.95483629 430.41188049 474.95133972 C434.76751223 474.94540807 439.12312429 474.94349399 443.47875977 474.9440918 C449.03165274 474.94419396 454.58441943 474.93045883 460.13728237 474.91331959 C464.45179313 474.90216052 468.76627349 474.90017366 473.0807972 474.90070152 C475.12791447 474.8995305 477.17503276 474.89515875 479.22213554 474.88736916 C498.12417365 474.82207468 498.12417365 474.82207468 507.38911438 476.67225647 C512.23327183 477.63512287 517.1448667 477.46827552 522.06396484 477.44189453 C523.70196045 477.43452271 523.70196045 477.43452271 525.37304688 477.42700195 C541.45154024 477.19396299 554.13078542 472.8807501 567.69287109 464.26611328 C569.68896484 463.12939453 569.68896484 463.12939453 571.68896484 463.12939453 C571.68896484 462.46939453 571.68896484 461.80939453 571.68896484 461.12939453 C573.33899312 459.77552517 575.00640354 458.44261311 576.68896484 457.12939453 C577.01896484 456.46939453 577.34896484 455.80939453 577.68896484 455.12939453 C578.34896484 455.12939453 579.00896484 455.12939453 579.68896484 455.12939453 C579.94935547 454.58541016 580.20974609 454.04142578 580.47802734 453.48095703 C581.34607986 451.79525505 582.28796369 450.14680036 583.27490234 448.52783203 C592.79346028 432.44188478 594.92988358 414.63105635 590.609375 396.52490234 C588.65421652 389.17430654 585.37146641 382.75971139 581.68896484 376.12939453 C581.01447692 374.80000059 580.34393326 373.46851312 579.68896484 372.12939453 C579.02896484 372.12939453 578.36896484 372.12939453 577.68896484 372.12939453 C576.33509549 370.47936625 575.00218342 368.81195583 573.68896484 367.12939453 C573.02896484 366.79939453 572.36896484 366.46939453 571.68896484 366.12939453 C571.68896484 365.46939453 571.68896484 364.80939453 571.68896484 364.12939453 C571.16560547 363.87029297 570.64224609 363.61119141 570.10302734 363.34423828 C568.25634835 362.41492248 566.41956539 361.46591749 564.58740234 360.50830078 C557.77726752 356.99753283 551.20266756 353.82295927 543.68896484 352.12939453 C542.81498047 351.92572266 541.94099609 351.72205078 541.04052734 351.51220703 C521.10174177 347.52444992 498.71456222 350.02871842 480.51342773 359.2019043 C479.7962709 359.5626857 479.07911407 359.9234671 478.34022522 360.29518127 C477.7953093 360.57047165 477.25039337 360.84576202 476.68896484 361.12939453 C477.44936569 361.13304016 478.20976654 361.13668579 478.99320984 361.14044189 C486.21506466 361.17855852 493.43641701 361.23567427 500.65794659 361.31329727 C504.3692298 361.35254155 508.08028393 361.38484124 511.79174805 361.40039062 C515.38416827 361.4157115 518.97595769 361.45042208 522.56809425 361.49770355 C524.58221902 361.51941622 526.59652263 361.52185491 528.61076355 361.52374268 C542.14133005 361.73543736 552.75894065 365.22141345 563.68896484 373.12939453 C565.26677734 374.24314453 565.26677734 374.24314453 566.87646484 375.37939453 C577.24828433 385.52072914 582.67830096 397.05208705 582.93115234 411.49780273 C582.98352195 427.04339311 579.30115264 439.26364571 568.37646484 451.00439453 C555.56427444 462.68609755 541.78738156 465.73483632 524.99658203 465.67529297 C523.34950289 465.68404536 521.70243222 465.69453689 520.05537415 465.70661926 C515.62020709 465.73429619 511.18531999 465.73788803 506.75007915 465.73689938 C502.10157304 465.74004434 497.45319011 465.76569528 492.80474854 465.78887939 C484.01844824 465.82932223 475.23222195 465.84975246 466.44584298 465.86285329 C456.43601553 465.87876317 446.42631329 465.91719547 436.41655874 465.95744658 C415.8407355 466.03968505 395.26491834 466.09387728 374.68896484 466.12939453 C374.25765259 467.04398438 374.25765259 467.04398438 373.81762695 467.97705078 C372.34731833 470.78090993 370.40303117 472.81177957 368.25146484 475.12939453 C364.98463402 478.65820816 364.98463402 478.65820816 362.02880859 482.44189453 C361.36558594 483.27720703 361.36558594 483.27720703 360.68896484 484.12939453 C360.02896484 484.12939453 359.36896484 484.12939453 358.68896484 484.12939453 C358.68896484 484.78939453 358.68896484 485.44939453 358.68896484 486.12939453 C358.02896484 486.12939453 357.36896484 486.12939453 356.68896484 486.12939453 C356.68896484 486.78939453 356.68896484 487.44939453 356.68896484 488.12939453 C356.02896484 488.12939453 355.36896484 488.12939453 354.68896484 488.12939453 C354.68896484 488.78939453 354.68896484 489.44939453 354.68896484 490.12939453 C352.22651478 492.67651336 349.40911213 494.86332589 346.68896484 497.12939453 C345.86783203 497.82548828 345.04669922 498.52158203 344.20068359 499.23876953 C336.97270138 505.27815022 329.46738025 510.82780118 321.68896484 516.12939453 C320.8067627 516.73436768 320.8067627 516.73436768 319.90673828 517.3515625 C269.50563616 551.49824037 205.94976747 561.19366214 146.68896484 550.12939453 C125.99841073 546.11527793 106.1423709 539.36356945 87.68896484 529.12939453 C87.05941895 528.78295898 86.42987305 528.43652344 85.78125 528.07958984 C76.00376259 522.63408985 67.35285428 516.18543265 58.68896484 509.12939453 C57.89876953 508.56994141 57.10857422 508.01048828 56.29443359 507.43408203 C55.76462891 507.00353516 55.23482422 506.57298828 54.68896484 506.12939453 C54.68896484 505.46939453 54.68896484 504.80939453 54.68896484 504.12939453 C54.13724609 503.90251953 53.58552734 503.67564453 53.01708984 503.44189453 C50.00204067 501.74213527 47.87666115 499.58134637 45.43896484 497.12939453 C44.54693359 496.24251953 43.65490234 495.35564453 42.73583984 494.44189453 C40.68896484 492.12939453 40.68896484 492.12939453 40.68896484 490.12939453 C40.02896484 490.12939453 39.36896484 490.12939453 38.68896484 490.12939453 C38.68896484 489.46939453 38.68896484 488.80939453 38.68896484 488.12939453 C38.02896484 488.12939453 37.36896484 488.12939453 36.68896484 488.12939453 C35.37963867 486.7434082 35.37963867 486.7434082 33.89599609 484.79736328 C33.35168945 484.08692871 32.80738281 483.37649414 32.24658203 482.64453125 C31.67069336 481.87641113 31.09480469 481.10829102 30.50146484 480.31689453 C29.91139648 479.53588379 29.32132812 478.75487305 28.71337891 477.95019531 C24.39308159 472.18225286 20.39989539 466.30848498 16.68896484 460.12939453 C15.98384766 459.01693359 15.27873047 457.90447266 14.55224609 456.75830078 C-3.74909433 427.63059449 -20.31103516 384.68969981 -20.31103516 350.12939453 C-22.1495349 350.13077722 -22.1495349 350.13077722 -24.02517605 350.13218784 C-53.08989896 350.15382413 -82.15462112 350.17032423 -111.21935016 350.18045986 C-114.79312473 350.18171064 -118.36689928 350.18300495 -121.94067383 350.18432617 C-122.65217783 350.18458848 -123.36368184 350.18485079 -124.09674657 350.18512105 C-135.63235684 350.18947783 -147.16796214 350.19736542 -158.70356946 350.20654733 C-170.53141378 350.21588364 -182.35925548 350.22145009 -194.18710333 350.22348303 C-200.83429827 350.22473459 -207.48148395 350.22787927 -214.12867546 350.23512459 C-220.37724917 350.24188064 -226.62580691 350.24401235 -232.87438393 350.24250221 C-235.17508404 350.24277873 -237.47578466 350.2447863 -239.77648163 350.24860001 C-242.90280121 350.25353077 -246.02905943 350.25239511 -249.15538025 350.24964905 C-250.54007953 350.25401831 -250.54007953 350.25401831 -251.95275253 350.25847584 C-258.19691395 350.24351574 -258.19691395 350.24351574 -259.31103516 349.12939453 C-259.42104094 347.03947594 -259.46016716 344.94580468 -259.47216797 342.85302734 C-259.47713287 342.19766998 -259.48209778 341.54231262 -259.48721313 340.86709595 C-259.50187249 338.68889328 -259.50864434 336.51076352 -259.51416016 334.33251953 C-259.51991025 332.82135007 -259.525668 331.31018064 -259.53143311 329.79901123 C-259.54195502 326.62463032 -259.5477893 323.45027481 -259.55126953 320.27587891 C-259.55674481 316.21261737 -259.58074676 312.14969255 -259.60924149 308.08653641 C-259.62789139 304.96208731 -259.6330748 301.83771874 -259.63460541 298.71321869 C-259.63762917 297.21572791 -259.64564842 295.71823846 -259.65879059 294.22080231 C-259.67589453 292.1213906 -259.67396036 290.02279345 -259.66748047 287.92333984 C-259.6711261 286.72944641 -259.67477173 285.53555298 -259.67852783 284.30548096 C-259.27332817 280.80350871 -258.33284892 278.97838869 -256.31103516 276.12939453 C-255.79541016 275.36626953 -255.27978516 274.60314453 -254.74853516 273.81689453 C-254.03697266 272.98158203 -254.03697266 272.98158203 -253.31103516 272.12939453 C-252.65103516 272.12939453 -251.99103516 272.12939453 -251.31103516 272.12939453 C-251.09576172 271.59572266 -250.88048828 271.06205078 -250.65869141 270.51220703 C-248.81526672 267.25281845 -246.31090143 264.70127683 -243.74853516 262.00439453 C-240.12469609 258.36536046 -240.12469609 258.36536046 -237.31103516 254.12939453 C-236.65103516 254.12939453 -235.99103516 254.12939453 -235.31103516 254.12939453 C-235.31103516 253.46939453 -235.31103516 252.80939453 -235.31103516 252.12939453 C-234.65103516 252.12939453 -233.99103516 252.12939453 -233.31103516 252.12939453 C-233.09576172 251.59572266 -232.88048828 251.06205078 -232.65869141 250.51220703 C-230.81526672 247.25281845 -228.31090143 244.70127683 -225.74853516 242.00439453 C-222.12469609 238.36536046 -222.12469609 238.36536046 -219.31103516 234.12939453 C-218.65103516 234.12939453 -217.99103516 234.12939453 -217.31103516 234.12939453 C-217.04315186 233.53932617 -216.77526855 232.94925781 -216.49926758 232.34130859 C-215.29930033 230.10754995 -214.04491503 228.56666028 -212.29931641 226.73876953 C-211.70924805 226.11518555 -211.11917969 225.49160156 -210.51123047 224.84912109 C-209.88829102 224.19911133 -209.26535156 223.54910156 -208.62353516 222.87939453 C-207.35314942 221.53645234 -206.08360912 220.19270985 -204.81494141 218.84814453 C-204.2079541 218.20619141 -203.6009668 217.56423828 -202.97558594 216.90283203 C-199.15230418 212.82945 -195.41189356 208.78068214 -192.31103516 204.12939453 C-191.65103516 204.12939453 -190.99103516 204.12939453 -190.31103516 204.12939453 C-190.02228516 203.53126953 -189.73353516 202.93314453 -189.43603516 202.31689453 C-188.31103516 200.12939453 -188.31103516 200.12939453 -186.31103516 197.12939453 C-185.65103516 197.12939453 -184.99103516 197.12939453 -184.31103516 197.12939453 C-184.03864014 196.53481445 -183.76624512 195.94023437 -183.4855957 195.32763672 C-182.34074027 193.18498897 -181.18458818 191.70932817 -179.51806641 189.95751953 C-178.97375977 189.37969727 -178.42945313 188.801875 -177.86865234 188.20654297 C-177.29276367 187.60358398 -176.716875 187.000625 -176.12353516 186.37939453 C-174.9365082 185.1197586 -173.7503027 183.85934803 -172.56494141 182.59814453 C-171.99791504 181.99615234 -171.43088867 181.39416016 -170.84667969 180.77392578 C-168.49090138 178.25110818 -166.22838706 175.65358849 -163.97509766 173.03955078 C-161.9956339 170.76734942 -159.96520346 168.54479581 -157.93603516 166.31689453 C-154.88244649 162.93998471 -151.96674311 159.49722321 -149.12353516 155.94189453 C-144.65393597 150.4005442 -139.82670596 145.23515898 -134.91967773 140.07983398 C-134.33726318 139.4658374 -133.75484863 138.85184082 -133.15478516 138.21923828 C-132.63078125 137.67130615 -132.10677734 137.12337402 -131.56689453 136.55883789 C-130.20688339 135.13306754 -130.20688339 135.13306754 -129.31103516 133.12939453 C-128.65103516 133.12939453 -127.99103516 133.12939453 -127.31103516 133.12939453 C-127.04291016 132.54673828 -126.77478516 131.96408203 -126.49853516 131.36376953 C-125.29622525 129.10152853 -123.97277603 127.32363135 -122.31103516 125.37939453 C-121.79541016 124.76580078 -121.27978516 124.15220703 -120.74853516 123.52001953 C-119.31103516 122.12939453 -119.31103516 122.12939453 -117.31103516 122.12939453 C-117.09576172 121.59572266 -116.88048828 121.06205078 -116.65869141 120.51220703 C-114.81526672 117.25281845 -112.31090143 114.70127683 -109.74853516 112.00439453 C-106.12469609 108.36536046 -106.12469609 108.36536046 -103.31103516 104.12939453 C-102.65103516 104.12939453 -101.99103516 104.12939453 -101.31103516 104.12939453 C-101.31103516 103.46939453 -101.31103516 102.80939453 -101.31103516 102.12939453 C-100.65103516 102.12939453 -99.99103516 102.12939453 -99.31103516 102.12939453 C-99.08802734 101.58798828 -98.86501953 101.04658203 -98.63525391 100.48876953 C-96.89023008 97.37964154 -94.55792101 94.95083696 -92.12353516 92.37939453 C-91.11893214 91.30191875 -90.11502463 90.22379409 -89.11181641 89.14501953 C-88.62664551 88.62488281 -88.14147461 88.10474609 -87.64160156 87.56884766 C-85.99441681 85.78686576 -84.39689109 83.96605494 -82.81103516 82.12939453 C-80.36563917 79.30282171 -77.85438407 76.54648869 -75.31274414 73.80615234 C-74.60033569 73.03803223 -74.60033569 73.03803223 -73.87353516 72.25439453 C-73.16789429 71.49400879 -73.16789429 71.49400879 -72.44799805 70.71826172 C-68.68233159 66.62211354 -65.22688335 62.33413351 -61.86962891 57.89501953 C-61.35529297 57.31236328 -60.84095703 56.72970703 -60.31103516 56.12939453 C-59.65103516 56.12939453 -58.99103516 56.12939453 -58.31103516 56.12939453 C-58.04291016 55.54673828 -57.77478516 54.96408203 -57.49853516 54.36376953 C-56.29622525 52.10152853 -54.97277603 50.32363135 -53.31103516 48.37939453 C-52.79541016 47.76580078 -52.27978516 47.15220703 -51.74853516 46.52001953 C-50.31103516 45.12939453 -50.31103516 45.12939453 -48.31103516 45.12939453 C-47.988125 44.32888672 -47.988125 44.32888672 -47.65869141 43.51220703 C-45.81526672 40.25281845 -43.31090143 37.70127683 -40.74853516 35.00439453 C-37.12469609 31.36536046 -37.12469609 31.36536046 -34.31103516 27.12939453 C-33.65103516 27.12939453 -32.99103516 27.12939453 -32.31103516 27.12939453 C-31.988125 26.32888672 -31.988125 26.32888672 -31.65869141 25.51220703 C-29.81526672 22.25281845 -27.31090143 19.70127683 -24.74853516 17.00439453 C-21.12469609 13.36536046 -21.12469609 13.36536046 -18.31103516 9.12939453 C-17.65103516 9.12939453 -16.99103516 9.12939453 -16.31103516 9.12939453 C-16.04291016 8.55189453 -15.77478516 7.97439453 -15.49853516 7.37939453 C-11.65453773 0.09603099 -7.83519861 -0.01979667 0 0 Z M-13.31103516 110.12939453 C-13.64103516 111.11939453 -13.97103516 112.10939453 -14.31103516 113.12939453 C-14.97103516 113.12939453 -15.63103516 113.12939453 -16.31103516 113.12939453 C-17.80732695 114.80794584 -19.23396176 116.54898351 -20.62353516 118.31689453 C-23.01200774 121.34607793 -25.34701735 124.16467218 -28.10400391 126.86767578 C-30.54383552 128.84127672 -30.54383552 128.84127672 -30.31103516 131.12939453 C-30.97103516 131.12939453 -31.63103516 131.12939453 -32.31103516 131.12939453 C-33.77974243 132.54259372 -33.77974243 132.54259372 -35.31103516 134.44189453 C-38.26716151 137.92259445 -41.28928676 141.32387667 -44.37353516 144.69189453 C-51.43268489 151.21474177 -51.43268489 151.21474177 -55.31103516 159.12939453 C-55.97103516 159.12939453 -56.63103516 159.12939453 -57.31103516 159.12939453 C-59.08775213 160.80899291 -59.08775213 160.80899291 -60.87353516 162.94189453 C-61.49357422 163.64958984 -62.11361328 164.35728516 -62.75244141 165.08642578 C-64.49528269 167.14212921 -64.49528269 167.14212921 -65.31103516 170.12939453 C-65.97103516 170.12939453 -66.63103516 170.12939453 -67.31103516 170.12939453 C-68.80732695 171.80794584 -70.23396176 173.54898351 -71.62353516 175.31689453 C-74.01200774 178.34607793 -76.34701735 181.16467218 -79.10400391 183.86767578 C-81.54383552 185.84127672 -81.54383552 185.84127672 -81.31103516 188.12939453 C-81.97103516 188.12939453 -82.63103516 188.12939453 -83.31103516 188.12939453 C-84.64084608 189.62048687 -85.89802246 191.17646167 -87.12353516 192.75439453 C-90.88417305 197.46278607 -94.81172214 201.92449229 -98.93603516 206.31689453 C-102.91399804 210.55709693 -106.84563254 214.81476588 -110.64697266 219.21533203 C-114.90335838 224.11117477 -119.29141963 228.89290754 -123.63916016 233.70751953 C-127.62011811 238.12177903 -131.57637852 242.55296688 -135.47119141 247.04345703 C-136.87746281 248.63782843 -138.30619821 250.21241307 -139.74462891 251.77783203 C-140.57091797 252.67759766 -141.39720703 253.57736328 -142.24853516 254.50439453 C-143.02068359 255.33712891 -143.79283203 256.16986328 -144.58837891 257.02783203 C-146.52234917 258.93429275 -146.52234917 258.93429275 -146.31103516 261.12939453 C-146.97103516 261.12939453 -147.63103516 261.12939453 -148.31103516 261.12939453 C-149.80981018 262.78423061 -151.23591989 264.50529965 -152.62353516 266.25439453 C-153.38279297 267.20572266 -154.14205078 268.15705078 -154.92431641 269.13720703 C-155.71193359 270.12462891 -156.49955078 271.11205078 -157.31103516 272.12939453 C-158.96103516 274.10939453 -160.61103516 276.08939453 -162.31103516 278.12939453 C-117.43103516 278.12939453 -72.55103516 278.12939453 -26.31103516 278.12939453 C-25.14426178 268.21182086 -24.00600209 258.40968714 -23.32299805 248.46484375 C-21.99989616 229.46500904 -20.46106696 210.48373289 -18.87353516 191.50439453 C-18.7671875 190.23106262 -18.66083984 188.95773071 -18.55126953 187.64581299 C-17.42467505 174.17340734 -16.28041994 160.70267307 -15.10009766 147.23486328 C-15.00572922 146.15710632 -14.91136078 145.07934937 -14.81413269 143.96893311 C-14.37294634 138.93727855 -13.92870037 133.90592298 -13.47924805 128.875 C-13.32289246 127.10693573 -13.16655965 125.33886945 -13.01025391 123.57080078 C-12.93864044 122.78102341 -12.86702698 121.99124603 -12.79324341 121.17753601 C-12.46835107 117.4834096 -12.22885532 113.83850574 -12.31103516 110.12939453 C-12.64103516 110.12939453 -12.97103516 110.12939453 -13.31103516 110.12939453 Z M145.56396484 394.81689453 C142.93760242 398.05607486 141.89142823 400.96332103 141.68896484 405.12939453 C142.5537229 408.83550049 143.32035514 411.1367765 146.46630859 413.41845703 C153.51699228 417.18062606 160.92860918 417.34492594 168.76708984 417.64697266 C173.04651012 417.86339372 176.77795867 418.32749592 180.68896484 420.12939453 C182.06396484 423.75439453 182.06396484 423.75439453 182.68896484 427.12939453 C174.61823758 429.99898645 165.69048743 430.46336227 157.68896484 427.12939453 C157.27001953 426.44876953 156.85107422 425.76814453 156.41943359 425.06689453 C154.76767189 422.7899772 154.76767189 422.7899772 151.55224609 422.73876953 C150.38048828 422.78517578 149.20873047 422.83158203 148.00146484 422.87939453 C146.82197266 422.91548828 145.64248047 422.95158203 144.42724609 422.98876953 C143.52361328 423.03517578 142.61998047 423.08158203 141.68896484 423.12939453 C142.45062869 427.8597279 144.02698778 430.99184875 147.68896484 434.12939453 C159.02314381 440.28359233 174.59091329 439.26592642 186.68896484 436.12939453 C190.80370951 434.18030495 192.27019069 432.81834555 194.62646484 428.94189453 C195.91797958 424.30763577 195.9656177 420.75950875 194.68896484 416.12939453 C192.22449766 412.05766614 188.35098323 410.93991605 183.94287109 409.71142578 C179.05714781 408.83750889 174.15645607 408.66851302 169.19824219 408.59545898 C163.99551908 408.45651554 160.35747193 407.45437289 155.68896484 405.12939453 C156.06396484 402.69189453 156.06396484 402.69189453 156.68896484 400.12939453 C159.91462428 398.51656481 163.39837292 398.86152384 166.93896484 398.81689453 C167.69048828 398.78789063 168.44201172 398.75888672 169.21630859 398.72900391 C174.67716709 398.66705699 177.15273759 399.93928349 181.68896484 403.12939453 C185.10440309 403.81562821 185.10440309 403.81562821 188.56396484 403.87939453 C190.29259766 403.96447266 190.29259766 403.96447266 192.05615234 404.05126953 C193.35939453 404.08994141 193.35939453 404.08994141 194.68896484 404.12939453 C193.92080411 399.24258473 192.55803744 397.32558494 188.68896484 394.12939453 C175.94489736 387.64150563 158.15688649 388.01671684 145.56396484 394.81689453 Z M220.68896484 391.12939453 C215.7965793 400.82008127 210.98828165 410.54915873 206.25146484 420.31689453 C205.7194043 421.40349365 205.18734375 422.49009277 204.63916016 423.60961914 C204.14125977 424.64094971 203.64335938 425.67228027 203.13037109 426.73486328 C202.6837915 427.65420654 202.23721191 428.5735498 201.77709961 429.52075195 C200.45418388 432.45179708 200.45418388 432.45179708 199.68896484 437.12939453 C203.31896484 437.12939453 206.94896484 437.12939453 210.68896484 437.12939453 C211.34896484 436.01564453 212.00896484 434.90189453 212.68896484 433.75439453 C213.06021484 433.12791016 213.43146484 432.50142578 213.81396484 431.85595703 C214.83964832 430.15466786 214.83964832 430.15466786 214.68896484 428.12939453 C224.58896484 428.12939453 234.48896484 428.12939453 244.68896484 428.12939453 C245.34896484 430.10939453 246.00896484 432.08939453 246.68896484 434.12939453 C247.34896484 435.11939453 248.00896484 436.10939453 248.68896484 437.12939453 C251.81454443 437.49469686 251.81454443 437.49469686 255.31396484 437.31689453 C256.50248047 437.28982422 257.69099609 437.26275391 258.91552734 437.23486328 C260.28837891 437.18265625 260.28837891 437.18265625 261.68896484 437.12939453 C254.44427729 421.5610234 246.91232352 406.2055521 238.68896484 391.12939453 C232.74896484 391.12939453 226.80896484 391.12939453 220.68896484 391.12939453 Z M267.68896484 392.12939453 C267.59609224 393.54164499 267.57149713 394.95848388 267.57543945 396.3737793 C267.57551498 397.2746376 267.57559052 398.17549591 267.57566833 399.10365295 C267.58082962 400.08281174 267.58599091 401.06197052 267.59130859 402.07080078 C267.59272354 403.06820786 267.59413849 404.06561493 267.59559631 405.09324646 C267.6012137 408.29282577 267.61376913 411.49233622 267.62646484 414.69189453 C267.6314776 416.85530498 267.6360409 419.01871653 267.64013672 421.18212891 C267.65118878 426.49791082 267.66846505 431.81364099 267.68896484 437.12939453 C271.64896484 437.12939453 275.60896484 437.12939453 279.68896484 437.12939453 C280.01896484 426.89939453 280.34896484 416.66939453 280.68896484 406.12939453 C284.68896484 408.12939453 284.68896484 408.12939453 285.68896484 410.12939453 C286.34896484 410.12939453 287.00896484 410.12939453 287.68896484 410.12939453 C287.95322266 410.72236328 288.21748047 411.31533203 288.48974609 411.92626953 C289.73266909 414.20968508 290.9929813 415.60366177 292.87646484 417.37939453 C297.62227796 421.9867881 301.96332905 426.89073188 306.00146484 432.12939453 C306.83677734 433.11939453 306.83677734 433.11939453 307.68896484 434.12939453 C308.34896484 434.12939453 309.00896484 434.12939453 309.68896484 434.12939453 C310.01896484 435.11939453 310.34896484 436.10939453 310.68896484 437.12939453 C315.30896484 437.12939453 319.92896484 437.12939453 324.68896484 437.12939453 C324.68896484 421.94939453 324.68896484 406.76939453 324.68896484 391.12939453 C320.72896484 391.12939453 316.76896484 391.12939453 312.68896484 391.12939453 C311.38234989 392.21047902 311.38234989 392.21047902 311.57543945 394.81323242 C311.58067627 395.98104248 311.58591309 397.14885254 311.59130859 398.35205078 C311.59453125 399.61210938 311.59775391 400.87216797 311.60107422 402.17041016 C311.60943081 403.51090562 311.61789577 404.85140041 311.62646484 406.19189453 C311.63147824 407.53629395 311.63604143 408.88069513 311.64013672 410.22509766 C311.65196997 413.52657394 311.66845514 416.82796256 311.68896484 420.12939453 C307.84959004 418.35908636 305.69106212 416.18688405 302.87646484 413.00439453 C302.43778076 412.51156982 301.99909668 412.01874512 301.54711914 411.51098633 C300.25478244 410.05601424 298.97170693 408.59283249 297.68896484 407.12939453 C297.04185547 406.39591797 296.39474609 405.66244141 295.72802734 404.90673828 C294.87337891 403.93414063 294.87337891 403.93414063 294.00146484 402.94189453 C293.44072266 402.31927734 292.87998047 401.69666016 292.30224609 401.05517578 C290.68896484 399.12939453 290.68896484 399.12939453 289.23193359 396.85986328 C287.51100392 394.37213962 286.23375325 392.7899768 283.68896484 391.12939453 C275.1731497 389.76055566 275.1731497 389.76055566 267.68896484 392.12939453 Z M366.68896484 391.12939453 C366.65158203 393.08103516 366.61419922 395.03267578 366.57568359 397.04345703 C366.51001819 399.61378856 366.44357105 402.18410021 366.37646484 404.75439453 C366.35390625 406.03958984 366.33134766 407.32478516 366.30810547 408.64892578 C366.27265625 409.89287109 366.23720703 411.13681641 366.20068359 412.41845703 C366.17449951 413.56008301 366.14831543 414.70170898 366.12133789 415.87792969 C365.63337463 419.54743546 364.61578339 421.98044848 362.68896484 425.12939453 C359.48271597 427.26689378 358.46438381 427.42514452 354.75146484 427.44189453 C353.89681641 427.45865234 353.04216797 427.47541016 352.16162109 427.49267578 C349.12624195 427.0467196 347.86204618 426.28370195 345.68896484 424.12939453 C345.02896484 422.47939453 344.36896484 420.82939453 343.68896484 419.12939453 C339.72896484 419.12939453 335.76896484 419.12939453 331.68896484 419.12939453 C331.80475177 425.61346252 333.38779129 428.67101152 337.70458984 433.46533203 C343.57268848 438.3862179 351.3758246 438.06446099 358.68896484 438.12939453 C363.85997285 437.59827816 368.57056989 436.4241105 372.68896484 433.12939453 C377.42766954 427.0367742 378.94969647 421.63499477 378.88427734 413.98095703 C378.8800325 412.99486954 378.8800325 412.99486954 378.8757019 411.98886108 C378.86459932 409.91051221 378.83951471 407.83261087 378.81396484 405.75439453 C378.80392216 404.33643205 378.79479857 402.91846275 378.78662109 401.50048828 C378.76469289 398.04331417 378.73023302 394.58639811 378.68896484 391.12939453 C374.72896484 391.12939453 370.76896484 391.12939453 366.68896484 391.12939453 Z M388.68896484 391.12939453 C388.68896484 406.30939453 388.68896484 421.48939453 388.68896484 437.12939453 C403.53896484 437.12939453 418.38896484 437.12939453 433.68896484 437.12939453 C433.68896484 434.15939453 433.68896484 431.18939453 433.68896484 428.12939453 C432.72482666 428.13463135 431.76068848 428.13986816 430.76733398 428.14526367 C427.2022392 428.16331571 423.63714848 428.17482727 420.07202148 428.18432617 C418.52676719 428.18936593 416.98151768 428.19619773 415.4362793 428.20483398 C413.21971456 428.21691529 411.00321266 428.22262626 408.78662109 428.22705078 C407.74442162 428.23479271 407.74442162 428.23479271 406.6811676 428.24269104 C405.01667154 428.2428873 403.35230986 428.19128582 401.68896484 428.12939453 C401.35896484 427.79939453 401.02896484 427.46939453 400.68896484 427.12939453 C400.77834287 425.60420177 400.9343363 424.08257524 401.12646484 422.56689453 C401.22830078 421.74060547 401.33013672 420.91431641 401.43505859 420.06298828 C401.51884766 419.42490234 401.60263672 418.78681641 401.68896484 418.12939453 C402.59251709 418.13463135 403.49606934 418.13986816 404.42700195 418.14526367 C407.76847974 418.16227139 411.10991176 418.17482787 414.45141602 418.18432617 C415.89966557 418.18936554 417.34791001 418.19619706 418.79614258 418.20483398 C420.87371072 418.216917 422.95121182 418.22262664 425.02880859 418.22705078 C426.28040771 418.2322876 427.53200684 418.23752441 428.8215332 418.24291992 C431.58628779 418.45826488 431.58628779 418.45826488 432.68896484 417.12939453 C432.68896484 414.48939453 432.68896484 411.84939453 432.68896484 409.12939453 C422.12896484 409.12939453 411.56896484 409.12939453 400.68896484 409.12939453 C401.01896484 406.15939453 401.34896484 403.18939453 401.68896484 400.12939453 C412.24896484 399.79939453 422.80896484 399.46939453 433.68896484 399.12939453 C433.68896484 396.48939453 433.68896484 393.84939453 433.68896484 391.12939453 C418.83896484 391.12939453 403.98896484 391.12939453 388.68896484 391.12939453 Z M442.68896484 392.12939453 C442.58774822 395.1968313 442.5492839 398.24127868 442.55615234 401.30908203 C442.55519562 402.23278595 442.55423889 403.15648987 442.55325317 404.10818481 C442.55257116 406.06691557 442.55442693 408.02564856 442.55859375 409.984375 C442.56392962 412.98458953 442.55865574 415.98465352 442.55224609 418.98486328 C442.55290711 420.8846032 442.55418876 422.78434302 442.55615234 424.68408203 C442.55412811 425.58415985 442.55210388 426.48423767 442.55001831 427.41159058 C442.55317047 428.24900787 442.55632263 429.08642517 442.55957031 429.94921875 C442.56036591 430.6856662 442.5611615 431.42211365 442.5619812 432.18087769 C442.62032572 434.34658406 442.62032572 434.34658406 443.68896484 437.12939453 C458.86896484 437.12939453 474.04896484 437.12939453 489.68896484 437.12939453 C489.68896484 434.48939453 489.68896484 431.84939453 489.68896484 429.12939453 C486.21280272 427.97067382 483.5338521 428.03245705 479.86865234 428.06689453 C479.20938751 428.07068115 478.55012268 428.07446777 477.87088013 428.07836914 C475.76850828 428.09057323 473.66627434 428.10921236 471.56396484 428.12939453 C468.7905313 428.15588628 466.01716409 428.17591793 463.24365234 428.19189453 C462.01114746 428.20349609 460.77864258 428.21509766 459.50878906 428.22705078 C456.68896484 428.12939453 456.68896484 428.12939453 455.68896484 427.12939453 C455.6171652 425.61011415 455.60504477 424.08771971 455.62646484 422.56689453 C455.63548828 421.74060547 455.64451172 420.91431641 455.65380859 420.06298828 C455.66541016 419.42490234 455.67701172 418.78681641 455.68896484 418.12939453 C457.03643799 418.13724976 457.03643799 418.13724976 458.41113281 418.14526367 C461.73958983 418.16229178 465.06800065 418.17483791 468.39648438 418.18432617 C469.83789805 418.18935927 471.27930661 418.19618626 472.72070312 418.20483398 C474.7908657 418.21694436 476.86096085 418.22263301 478.93115234 418.22705078 C480.8006958 418.23490601 480.8006958 418.23490601 482.70800781 418.24291992 C485.6166759 418.3375604 485.6166759 418.3375604 487.68896484 417.12939453 C487.68896484 414.48939453 487.68896484 411.84939453 487.68896484 409.12939453 C477.12896484 409.12939453 466.56896484 409.12939453 455.68896484 409.12939453 C455.68896484 405.82939453 455.68896484 402.52939453 455.68896484 399.12939453 C466.57896484 399.12939453 477.46896484 399.12939453 488.68896484 399.12939453 C488.68896484 396.48939453 488.68896484 393.84939453 488.68896484 391.12939453 C482.29859253 391.10412391 475.90823302 391.08656136 469.51782227 391.07446289 C467.34203612 391.06942145 465.16625338 391.06258846 462.99047852 391.05395508 C459.87043418 391.04188115 456.75043446 391.03616448 453.63037109 391.03173828 C452.65121231 391.026577 451.67205353 391.02141571 450.66322327 391.01609802 C449.76236496 391.01602249 448.86150665 391.01594696 447.93334961 391.01586914 C447.13615005 391.01364853 446.3389505 391.01142792 445.51759338 391.00914001 C443.66974203 390.92888997 443.66974203 390.92888997 442.68896484 392.12939453 Z M494.68896484 391.12939453 C495.92034543 394.82353629 496.97797007 397.95963335 498.64428711 401.37475586 C499.02130264 402.15188431 499.39831818 402.92901276 499.78675842 403.72969055 C500.1889006 404.54866318 500.59104279 405.3676358 501.00537109 406.21142578 C501.42189438 407.06621017 501.83841766 407.92099457 502.26756287 408.80168152 C503.14412768 410.59855466 504.02250389 412.39454516 504.90258789 414.18969727 C506.25447378 416.94803384 507.60007555 419.70936939 508.94482422 422.47119141 C509.79797274 424.21811553 510.65147584 425.96486654 511.50537109 427.71142578 C511.90953751 428.54051956 512.31370392 429.36961334 512.7301178 430.22383118 C513.10398117 430.98519882 513.47784454 431.74656647 513.86303711 432.53100586 C514.35695702 433.53977531 514.35695702 433.53977531 514.8608551 434.56892395 C515.59125872 436.12940167 515.59125872 436.12940167 516.68896484 437.12939453 C519.38551338 437.20259075 522.05587942 437.2218199 524.75146484 437.19189453 C525.51007812 437.18738281 526.26869141 437.18287109 527.05029297 437.17822266 C528.92988356 437.16640133 530.80943383 437.14846531 532.68896484 437.12939453 C537.21856383 428.17861781 541.64649005 419.19271344 545.88037109 410.09790039 C548.09928936 405.34109435 550.41934654 400.65163435 552.87646484 396.01220703 C553.88707338 394.01209003 553.88707338 394.01209003 553.68896484 391.12939453 C549.72896484 391.12939453 545.76896484 391.12939453 541.68896484 391.12939453 C537.53842962 399.08026358 533.7399375 407.11627134 530.25146484 415.37939453 C529.89761719 416.21317627 529.54376953 417.04695801 529.17919922 417.90600586 C528.85371094 418.68613037 528.52822266 419.46625488 528.19287109 420.27001953 C527.90226807 420.96643555 527.61166504 421.66285156 527.31225586 422.38037109 C526.57706931 424.13392501 526.57706931 424.13392501 526.68896484 426.12939453 C525.69896484 426.12939453 524.70896484 426.12939453 523.68896484 426.12939453 C523.35896484 424.97439453 523.02896484 423.81939453 522.68896484 422.62939453 C520.41216367 415.76646528 516.96056749 409.44207752 513.66259766 403.02832031 C512.31776277 400.40542018 511.00264235 397.76800964 509.68896484 395.12939453 C509.02896484 393.80939453 508.36896484 392.48939453 507.68896484 391.12939453 C503.39896484 391.12939453 499.10896484 391.12939453 494.68896484 391.12939453 Z " fill="#000000" transform="translate(393.31103515625,227.87060546875)"/>
<path d="M0 0 C31.17750298 -0.04558808 62.35499718 -0.08100016 93.53252556 -0.10213066 C97.21016033 -0.10463219 100.88779502 -0.10722082 104.56542969 -0.10986328 C105.29760569 -0.1103879 106.02978168 -0.11091252 106.78414483 -0.11145304 C118.65211327 -0.12016462 130.5200624 -0.13593872 142.38801937 -0.15430559 C154.55826137 -0.17298372 166.72849324 -0.18411229 178.89874899 -0.18817699 C186.41337313 -0.19092639 193.92794272 -0.19962186 201.44255008 -0.21583293 C207.19685224 -0.22761704 212.95111916 -0.22891664 218.70543098 -0.22621536 C221.07182845 -0.226768 223.43822789 -0.23077798 225.80461311 -0.23841095 C229.02260092 -0.24828629 232.24035078 -0.24599614 235.45834351 -0.24050903 C236.40580016 -0.24633472 237.3532568 -0.2521604 238.32942426 -0.25816262 C239.18683828 -0.25418052 240.04425229 -0.25019842 240.92764854 -0.24609566 C241.67114095 -0.2468551 242.41463336 -0.24761454 243.18065584 -0.24839699 C245 0 245 0 247 2 C247.24723816 4.85328674 247.24723816 4.85328674 247.24291992 8.54516602 C247.24481827 9.21684814 247.24671661 9.88853027 247.24867249 10.58056641 C247.25238324 12.805131 247.24167302 15.02937058 247.23046875 17.25390625 C247.22927712 18.79564882 247.22882375 20.33739212 247.2290802 21.87913513 C247.22751488 25.11144551 247.21922083 28.3436452 247.20581055 31.57592773 C247.18880639 35.7279969 247.18499658 39.8799445 247.18575573 44.03204441 C247.18548439 47.21552195 247.18000924 50.39897268 247.17275429 53.58244133 C247.16956288 55.11391942 247.16759912 56.64540055 247.16686058 58.17688179 C247.16470278 60.31271717 247.15597128 62.44842116 247.14526367 64.58422852 C247.14145187 65.80175308 247.13764008 67.01927765 247.13371277 68.2736969 C247 71 247 71 246 72 C243.67232986 72.0976134 241.37437981 72.12997765 239.04624939 72.12025452 C238.31035554 72.12110894 237.57446169 72.12196337 236.81626803 72.12284368 C234.33183354 72.12450067 231.84746545 72.11897356 229.36303711 72.11352539 C227.58951316 72.11324354 225.81598909 72.11340121 224.04246521 72.1139679 C219.21208983 72.11425595 214.38173906 72.1083579 209.55136943 72.10139394 C204.50914683 72.09516176 199.46692373 72.09455671 194.42469788 72.09336853 C184.86949773 72.09025481 175.31430897 72.08204088 165.75911385 72.07201904 C154.88384567 72.06085916 144.00857695 72.05534777 133.13330448 72.05032361 C110.75553 72.0398583 88.37776564 72.02225807 66 72 C65.94350533 72.74625452 65.88701065 73.49250904 65.82880402 74.26137733 C65.56974041 77.67643859 65.30929523 81.09139317 65.04882812 84.50634766 C64.95998352 85.68024551 64.87113892 86.85414337 64.77960205 88.06361389 C64.1586665 96.1872831 63.40856578 104.278312 62.5 112.375 C60.96669582 126.56269381 59.91769976 140.76000174 59 155 C59.82798096 154.99476318 60.65596191 154.98952637 61.5090332 154.98413086 C115.5925913 154.6896109 164.39687458 158.51503921 209.9375 190.4375 C210.54770996 190.86281006 211.15791992 191.28812012 211.78662109 191.72631836 C213.23041159 192.76494856 214.62138897 193.87629394 216 195 C216 195.66 216 196.32 216 197 C216.59006836 197.26627197 217.18013672 197.53254395 217.78808594 197.80688477 C221.5398542 199.83060348 224.26842326 202.93007677 227.25 205.9375 C227.92313232 206.61627197 228.59626465 207.29504395 229.28979492 207.99438477 C234.47470623 213.30595614 238.96062289 218.76112769 243 225 C243.38462402 225.57266602 243.76924805 226.14533203 244.16552734 226.73535156 C254.65313025 242.36249321 261.75941568 258.66558703 266 277 C266.15839355 277.68304199 266.31678711 278.36608398 266.47998047 279.06982422 C267.36867317 283.02732875 268.10624253 286.98557448 268.69921875 290.99804688 C268.90213155 292.34860285 269.12395859 293.69643402 269.36328125 295.04101562 C271.67941713 308.51787223 267.40709893 317.29011083 261 329 C251.53262713 347.21906961 245.3528225 367.38981384 240.5625 387.3125 C240.31467773 388.33843262 240.06685547 389.36436523 239.81152344 390.42138672 C238.78530704 394.8618294 237.90682694 399.18168829 237.5703125 403.73046875 C236.53594209 416.50201051 229.88585446 422.88042106 220.359375 431.02929688 C219.58078125 431.67962891 218.8021875 432.32996094 218 433 C217.2678125 433.61423828 216.535625 434.22847656 215.78125 434.86132812 C181.39104135 463.23948037 138.86553617 477.47072542 94.4140625 477.22705078 C92.93388883 477.22648459 91.45371461 477.22680727 89.97354126 477.22793579 C86.01175409 477.2285022 82.05009168 477.21686529 78.08833313 477.20278788 C73.9270595 477.19015983 69.76578202 477.18910062 65.60449219 477.18673706 C57.74973634 477.18055737 49.89503715 477.16419484 42.04030609 477.14403808 C33.0872718 477.12156883 24.13423459 477.11065811 15.18117905 477.10064721 C-3.21257924 477.07982488 -21.60628504 477.04471831 -40 477 C-40.3216594 475.08636621 -40.64255701 473.17260435 -40.96313477 471.25878906 C-41.14191666 470.19307678 -41.32069855 469.1273645 -41.50489807 468.02935791 C-42.63465575 461.11676042 -43.23659133 454.24362442 -43.5625 447.25 C-43.6042334 446.36530029 -43.6459668 445.48060059 -43.68896484 444.5690918 C-44.118552 434.992805 -44.08866612 425.51090069 -43.625 415.9375 C-43.59422363 415.19798096 -43.56344727 414.45846191 -43.53173828 413.6965332 C-43.32519305 409.99885925 -43.09837872 408.14756808 -41 405 C-38.52849197 404.62082577 -38.52849197 404.62082577 -35.34893799 404.61473083 C-34.14636856 404.60508301 -32.94379913 404.59543518 -31.70478821 404.585495 C-30.36471471 404.58985937 -29.02464206 404.59449187 -27.68457031 404.59936523 C-26.27843134 404.59362496 -24.8722973 404.58654312 -23.46617126 404.57821655 C-20.43174935 404.56307104 -17.39750372 404.55733205 -14.36304474 404.55874443 C-9.55343354 404.56077718 -4.74405867 404.54121186 0.06549072 404.51856995 C9.42528343 404.47752343 18.78505792 404.45899653 28.14492035 404.44239807 C40.01476906 404.42008038 51.88456277 404.38619781 63.75432324 404.33519894 C68.52232359 404.31541536 73.2902016 404.30570634 78.05824137 404.30424678 C81.04714877 404.30146761 84.03599045 404.29057378 87.02486992 404.27773666 C89.04271887 404.27151501 91.06059076 404.27502101 93.07844543 404.27897644 C117.33162828 404.14503935 141.70856893 398.37479668 160.43359375 382.21484375 C162 381 162 381 164 381 C164 380.34 164 379.68 164 379 C164.66 379 165.32 379 166 379 C166 378.34 166 377.68 166 377 C166.66 377 167.32 377 168 377 C168 376.34 168 375.68 168 375 C168.66 375 169.32 375 170 375 C170.24105469 374.47277344 170.48210937 373.94554687 170.73046875 373.40234375 C172.03915002 370.92591611 173.55159262 368.6477541 175.12255859 366.33154297 C179.90558506 359.22079004 183.39349303 352.20947076 186 344 C186.30679688 343.071875 186.61359375 342.14375 186.9296875 341.1875 C193.20707848 319.66501664 190.69686613 293.21076894 180.24780273 273.34033203 C176.35535452 266.40497409 171.57615772 260.63008575 166 255 C165.175 254.113125 164.35 253.22625 163.5 252.3125 C162.675 251.549375 161.85 250.78625 161 250 C160.46117187 249.49339844 159.92234375 248.98679687 159.3671875 248.46484375 C135.40887198 227.84190157 102.50608909 227.71658681 72.75 227.5859375 C70.03758328 227.5682471 67.32519001 227.54771314 64.61279297 227.5272522 C58.24556728 227.48082536 51.87832501 227.44390902 45.51101875 227.41057932 C38.25075712 227.37209965 30.99058128 227.32275906 23.73039246 227.27259517 C8.82032537 227.16981355 -6.08979403 227.08038181 -21 227 C-21.9959575 222.55716806 -21.88858001 218.63007779 -21.44262695 214.12841797 C-21.3354409 212.95808769 -21.3354409 212.95808769 -21.22608948 211.76411438 C-20.98702183 209.17278168 -20.73765695 206.5825469 -20.48828125 203.9921875 C-20.31643869 202.15184334 -20.14524291 200.31143868 -19.97465515 198.47097778 C-19.52060817 193.59109835 -19.05788836 188.71207871 -18.59332275 183.83319092 C-18.13857854 179.04290882 -17.69158525 174.25190597 -17.24414062 169.4609375 C-16.53055782 161.82941117 -15.81186935 154.1983819 -15.09008789 146.56762695 C-14.34891001 138.72840554 -13.61687572 130.88838368 -12.89233398 123.04760742 C-12.75730957 121.5880406 -12.75730957 121.5880406 -12.61955738 120.09898758 C-12.098902 114.46983397 -12.098902 114.46983397 -11.58057594 108.84046555 C-10.6217064 98.40330133 -9.60199364 87.97906627 -8.4375 77.5625 C-7.26965621 66.9701027 -6.31175429 56.36990202 -5.4375 45.75 C-5.37425537 44.98398468 -5.31101074 44.21796936 -5.24584961 43.42874146 C-4.61704331 35.79290312 -4.00774541 28.15608703 -3.4375 20.515625 C-3.35185791 19.40219727 -3.26621582 18.28876953 -3.17797852 17.14160156 C-3.02268501 15.1128535 -2.87424253 13.08356401 -2.73413086 11.05371094 C-2.66589111 10.16973633 -2.59765137 9.28576172 -2.52734375 8.375 C-2.47312256 7.61960937 -2.41890137 6.86421875 -2.36303711 6.0859375 C-1.9586738 3.76254807 -1.08694617 2.07936643 0 0 Z " fill="#000000" transform="translate(499,101)"/>
<path d="M0 0 C0.66 0 1.32 0 2 0 C2.21615967 0.93569824 2.43231934 1.87139648 2.6550293 2.83544922 C13.12123331 48.0637889 25.46238149 93.36036016 57 129 C57.639375 129.74894531 58.27875 130.49789062 58.9375 131.26953125 C62.32430994 135.22332946 65.86920965 138.94116625 69.6171875 142.5546875 C72.13443226 145.18570603 71.99815251 146.13549115 71.94580078 149.97485352 C71.86826072 151.69315021 71.78431767 153.41116527 71.6953125 155.12890625 C71.63015945 156.48616066 71.63015945 156.48616066 71.56369019 157.87083435 C71.47042032 159.78503376 71.37440801 161.6991012 71.27587891 163.61303711 C71.12545779 166.55355095 70.9859397 169.49444002 70.84765625 172.43554688 C70.75586119 174.29169907 70.66343476 176.14782017 70.5703125 178.00390625 C70.52858917 178.88929581 70.48686584 179.77468536 70.44387817 180.68690491 C70.11512139 186.88487861 70.11512139 186.88487861 69 188 C66.47458998 188.09504251 63.97662874 188.12557158 61.45092773 188.11352539 C60.26564987 188.11374443 60.26564987 188.11374443 59.056427 188.1139679 C56.43212178 188.11326857 53.80788664 188.10547527 51.18359375 188.09765625 C49.36898335 188.09579214 47.55437244 188.0943682 45.73976135 188.09336853 C40.9540977 188.08954279 36.1684642 188.07971204 31.3828125 188.06866455 C26.50325936 188.05845163 21.62370136 188.05387117 16.74414062 188.04882812 C7.16274714 188.03808982 -2.41862393 188.02101273 -12 188 C-12.05002959 181.11842267 -12.00151751 174.28708077 -11.51953125 167.421875 C-11.40873691 165.73063386 -11.29798083 164.03939021 -11.18725586 162.34814453 C-11.12665985 161.44469299 -11.06606384 160.54124146 -11.00363159 159.6104126 C-9.30077382 134.12600274 -7.87498449 108.62540618 -6.4375 83.125 C-6.38434757 82.1821666 -6.33119514 81.23933319 -6.27643204 80.26792908 C-5.96106641 74.67352356 -5.96106641 74.67352356 -5.64599323 69.07910156 C-5.39157715 64.56147402 -5.13606922 60.04391352 -4.87806702 55.52648926 C-4.77788737 53.77059126 -4.6777436 52.01469121 -4.57763672 50.25878906 C-4.52882449 49.40290192 -4.48001226 48.54701477 -4.42972088 47.66519165 C-4.14143054 42.58157261 -3.86599948 37.49745337 -3.60171795 32.4125309 C-3.43614925 29.24420629 -3.2644122 26.07623274 -3.09169197 22.90829086 C-3.01343375 21.44312952 -2.93810516 19.97780823 -2.86596489 18.51233292 C-2.76722094 16.51027734 -2.65742819 14.50877589 -2.54711914 12.50732422 C-2.48931778 11.38881073 -2.43151642 10.27029724 -2.3719635 9.1178894 C-1.98316159 5.85885631 -1.14294891 3.06894287 0 0 Z " fill="#000000" transform="translate(363,589)"/>
<path d="M0 0 C2.98071284 1.04007852 3.88317551 1.78442333 5.4140625 4.609375 C5.81367187 5.64578125 6.21328125 6.6821875 6.625 7.75 C7.02976562 8.77609375 7.43453125 9.8021875 7.8515625 10.859375 C8.95949341 13.88922686 9.9991764 16.93325612 11 20 C10 21 10 21 8.23413086 21.11352539 C7.48526611 21.10828857 6.73640137 21.10305176 5.96484375 21.09765625 C5.15595703 21.09443359 4.34707031 21.09121094 3.51367188 21.08789062 C2.66353516 21.07951172 1.81339844 21.07113281 0.9375 21.0625 C0.08349609 21.05798828 -0.77050781 21.05347656 -1.65039062 21.04882812 C-3.76695663 21.03700373 -5.88348685 21.01906769 -8 21 C-8.77936251 18.71920922 -9.13422953 17.42311011 -8.39501953 15.09301758 C-8.06099121 14.45001709 -7.72696289 13.8070166 -7.3828125 13.14453125 C-7.02316406 12.44005859 -6.66351562 11.73558594 -6.29296875 11.00976562 C-5.90753906 10.28466797 -5.52210938 9.55957031 -5.125 8.8125 C-4.74730469 8.07580078 -4.36960937 7.33910156 -3.98046875 6.58007812 C-1.19764881 1.19764881 -1.19764881 1.19764881 0 0 Z " fill="#010101" transform="translate(622,627)"/>
<path d="M0 0 C-1.72970758 1.72970758 -3.95329617 1.12237685 -6.25901181 1.12908131 C-7.01872483 1.12616847 -7.77843785 1.12325563 -8.56117249 1.12025452 C-9.76301852 1.12153615 -9.76301852 1.12153615 -10.98914427 1.12284368 C-13.69468934 1.12450093 -16.40017346 1.11897314 -19.10571289 1.11352539 C-21.03687031 1.11324355 -22.96802783 1.1134012 -24.89918518 1.1139679 C-30.15929809 1.11425598 -35.41938841 1.10835757 -40.67949605 1.10139394 C-46.17015422 1.09516212 -51.66081284 1.09455674 -57.151474 1.09336853 C-67.55665691 1.0902547 -77.96182937 1.08204063 -88.36700767 1.07201904 C-100.20960946 1.06085949 -112.05221174 1.05534785 -123.89481747 1.05032361 C-148.26321745 1.03985805 -172.63160814 1.02225763 -197 1 C-197 0.34 -197 -0.32 -197 -1 C-171.60977045 -1.17710842 -146.21948879 -1.34279392 -120.82909584 -1.49477577 C-109.04064361 -1.56560721 -97.25223763 -1.64021622 -85.46386719 -1.72363281 C-75.19248417 -1.79630545 -64.92108471 -1.86197747 -54.64960325 -1.91914403 C-49.20790617 -1.94967726 -43.76628308 -1.98378295 -38.32466507 -2.02626419 C-33.20796585 -2.06609847 -28.09129767 -2.09660693 -22.97449684 -2.11981392 C-21.09184753 -2.13002379 -19.20921352 -2.14370621 -17.32661629 -2.16103554 C-14.76551411 -2.1841026 -12.20465083 -2.19492355 -9.64346313 -2.20254517 C-8.8905539 -2.2122618 -8.13764467 -2.22197843 -7.36192 -2.2319895 C-2.22824242 -2.22824242 -2.22824242 -2.22824242 0 0 Z " fill="#0B0B09" transform="translate(744,591)"/>
<path d="" fill="#000000" transform="translate(0,0)"/>
<path d="" fill="#000000" transform="translate(0,0)"/>
<path d="" fill="#000000" transform="translate(0,0)"/>
</svg>
